<?xml version="1.0" encoding="UTF-8"?>
<svg width="16px" height="16px" viewBox="0 0 16 16" version="1.1" xmlns="http://www.w3.org/2000/svg" xmlns:xlink="http://www.w3.org/1999/xlink">
    <!-- Generator: Sketch 55.2 (78181) - https://sketchapp.com -->
    <title>icon/完成/16</title>
    <desc>Created with Sketch.</desc>
    <g id="icon/完成/16" stroke="none" stroke-width="1" fill="none" fill-rule="evenodd">
        <path d="M2.32142857,2.35714286 C3.892864,0.785707429 5.78570286,0 8,0 C10.2142971,0 12.1011817,0.779753143 13.6607131,2.33928686 C15.2202469,3.89881829 16,5.78570286 16,8 C16,10.2142971 15.2202469,12.1011817 13.6607131,13.6607131 C12.1011817,15.2202459 10.2142971,16 8,16 C5.78570286,16 3.89881829,15.2202459 2.33928686,13.6607131 C0.779754057,12.1011817 0,10.2142971 0,8 C0,5.78570286 0.773801829,3.90477029 2.32142857,2.35714286 Z" id="路径" fill="#12D900"></path>
        <path d="M5.78209277,7.71736785 L12,8 L12,9.33333333 L5.16666667,9.33333333 L4,9.33333333 L4.66666667,4.66666667 L6,4.66666667 L5.78209277,7.71736785 Z" id="Combined-Shape" fill="#FFFFFF" transform="translate(8.000000, 7.000000) rotate(-45.000000) translate(-8.000000, -7.000000) "></path>
    </g>
</svg>