<?xml version="1.0" encoding="UTF-8"?>
<svg width="16px" height="16px" viewBox="0 0 16 16" version="1.1" xmlns="http://www.w3.org/2000/svg" xmlns:xlink="http://www.w3.org/1999/xlink">
    <!-- Generator: Sketch 55.2 (78181) - https://sketchapp.com -->
    <title>icon/警告/16</title>
    <desc>Created with Sketch.</desc>
    <g id="icon/警告/16" stroke="none" stroke-width="1" fill="none" fill-rule="evenodd">
        <circle id="Oval" fill="#FE9400" cx="8" cy="8" r="8"></circle>
        <path d="M8,4 C8.51884458,4 8.93945122,4.42060664 8.93945122,4.93945122 C8.93945122,4.95899928 8.93884109,4.97854258 8.93762171,4.99805258 L8.70825219,8.66796495 C8.68487707,9.04196692 8.37473174,9.33333333 8,9.33333333 C7.62526826,9.33333333 7.31512293,9.04196692 7.29174781,8.66796495 L7.06237829,4.99805258 C7.03001365,4.4802184 7.42356447,4.03419414 7.94139864,4.00182951 C7.96090864,4.00061013 7.98045194,4 8,4 Z M8,12.6666667 C7.44771525,12.6666667 7,12.2189514 7,11.6666667 C7,11.1143819 7.44771525,10.6666667 8,10.6666667 C8.55228475,10.6666667 9,11.1143819 9,11.6666667 C9,12.2189514 8.55228475,12.6666667 8,12.6666667 Z" id="形状结合" fill="#FFFFFF"></path>
    </g>
</svg>