<?xml version="1.0" encoding="UTF-8"?>
<svg width="24px" height="24px" viewBox="0 0 24 24" version="1.1" xmlns="http://www.w3.org/2000/svg" xmlns:xlink="http://www.w3.org/1999/xlink">
    <!-- Generator: Sketch 55.2 (78181) - https://sketchapp.com -->
    <title>icon/bad</title>
    <desc>Created with Sketch.</desc>
    <g id="icon/bad" stroke="none" stroke-width="1" fill="none" fill-rule="evenodd">
        <path d="M0,12 C0,10.3666592 0.316663488,8.8104256 0.95,7.3312512 C1.58333664,5.8520768 2.4354112,4.577088 3.5062496,3.5062496 C4.577088,2.4354112 5.8520768,1.5833376 7.3312512,0.95 C8.8104256,0.3166624 10.3666592,0 12,0 C13.625008,0 15.1770752,0.3166624 16.6562496,0.95 C18.135424,1.5833376 19.412496,2.4354112 20.4875008,3.5062496 C21.5625056,4.577088 22.4166624,5.8520768 23.05,7.3312512 C23.6833376,8.8104256 24,10.3666592 24,12 C24,13.625008 23.6833376,15.1791584 23.05,16.6624992 C22.4166624,18.14584 21.5625056,19.422912 20.4875008,20.4937504 C19.412496,21.5645888 18.135424,22.4166634 16.6562496,23.05 C15.1770752,23.6833365 13.625008,24 12,24 C10.3666592,24 8.8104256,23.6833365 7.3312512,23.05 C5.8520768,22.4166634 4.577088,21.5645888 3.5062496,20.4937504 C2.4354112,19.422912 1.58333664,18.14584 0.95,16.6624992 C0.316663488,15.1791584 0,13.625008 0,12 Z" id="路径" fill="#FF6767"></path>
        <path d="M12,6 C12.7782669,6 13.4091768,6.63090996 13.4091768,7.40917683 C13.4091768,7.43849893 13.4082616,7.46781388 13.4064326,7.49707887 L13.0623783,13.0019474 C13.0273156,13.5629504 12.5620976,14 12,14 C11.4379024,14 10.9726844,13.5629504 10.9376217,13.0019474 L10.5935674,7.49707887 C10.5450205,6.72032761 11.1353467,6.05129122 11.912098,6.00274426 C11.941363,6.0009152 11.9706779,6 12,6 Z" id="Combined-Shape" fill="#FFFFFF"></path>
        <path d="M12,19 C12.8284271,19 13.5,18.3284271 13.5,17.5 C13.5,16.6715729 12.8284271,16 12,16 C11.1715729,16 10.5,16.6715729 10.5,17.5 C10.5,18.3284271 11.1715729,19 12,19 Z" id="椭圆形" fill="#FFFFFF"></path>
    </g>
</svg>