<?xml version="1.0" encoding="UTF-8"?>
<svg width="16px" height="16px" viewBox="0 0 16 16" version="1.1" xmlns="http://www.w3.org/2000/svg" xmlns:xlink="http://www.w3.org/1999/xlink">
    <!-- Generator: Sketch 55.2 (78181) - https://sketchapp.com -->
    <title>icon/作答识别异常</title>
    <desc>Created with Sketch.</desc>
    <g id="icon/作答识别异常" stroke="none" stroke-width="1" fill="none" fill-rule="evenodd">
        <g transform="translate(2.000000, 1.000000)" fill="#AEBED9" id="形状结合">
            <path d="M12,8.55025253 L12,7 L5,14 L11,14 L1,14 C0.44771525,14 -1.86449833e-13,13.5522847 -1.86517468e-13,13 L-1.86517468e-13,1 C-1.86585104e-13,0.44771525 0.44771525,1.01453063e-16 1,0 L11,0 C11.5522847,-1.01453063e-16 12,0.44771525 12,1 L12,8.55025253 L13.1819805,9.73223305 L9.64644661,13.267767 L8.23223305,11.8535534 L11.767767,8.31801948 L12,8.55025253 Z M8.93933983,13.9748737 L7.52512627,13.9748737 L7.52512627,12.5606602 L8.93933983,13.9748737 Z M5.80769231,3 C5.79190349,3 5.77611851,3.0004928 5.76036044,3.00147768 C5.34210976,3.02761835 5.02424179,3.38786871 5.05038246,3.80611939 L5.23564246,6.77027938 C5.25452237,7.0723579 5.50502437,7.30769231 5.80769231,7.30769231 C6.11036025,7.30769231 6.36086225,7.0723579 6.37974215,6.77027938 L6.56500215,3.80611939 C6.56598703,3.79036132 6.56647983,3.77457634 6.56647983,3.75878752 C6.56647983,3.33972075 6.22675909,3 5.80769231,3 Z M5.80769231,10 C6.25376845,10 6.61538462,9.63838384 6.61538462,9.19230769 C6.61538462,8.74623155 6.25376845,8.38461538 5.80769231,8.38461538 C5.36161616,8.38461538 5,8.74623155 5,9.19230769 C5,9.63838384 5.36161616,10 5.80769231,10 Z"></path>
        </g>
    </g>
</svg>