<?xml version="1.0" encoding="UTF-8"?>
<svg width="16px" height="16px" viewBox="0 0 16 16" version="1.1" xmlns="http://www.w3.org/2000/svg" xmlns:xlink="http://www.w3.org/1999/xlink">
    <!-- Generator: Sketch 55.2 (78181) - https://sketchapp.com -->
    <title>icon/作答识别异常</title>
    <desc>Created with Sketch.</desc>
    <g id="icon/作答识别异常" stroke="none" stroke-width="1" fill="none" fill-rule="evenodd">
        <g transform="translate(2.000000, 1.000000)" id="形状结合">
            <path d="M12,10 L12,7 L5,14 L11,14 L1,14 C0.44771525,14 6.76353751e-17,13.5522847 0,13 L0,1 C-6.76353751e-17,0.44771525 0.44771525,1.01453063e-16 1,0 L11,0 C11.5522847,-1.01453063e-16 12,0.44771525 12,1 L12,10 Z" fill="#AEBED9"></path>
            <path d="M5.80769231,3 C6.22675909,3 6.56647983,3.33972075 6.56647983,3.75878752 C6.56647983,3.77457634 6.56598703,3.79036132 6.56500215,3.80611939 L6.37974215,6.77027938 C6.36086225,7.0723579 6.11036025,7.30769231 5.80769231,7.30769231 C5.50502437,7.30769231 5.25452237,7.0723579 5.23564246,6.77027938 L5.05038246,3.80611939 C5.02424179,3.38786871 5.34210976,3.02761835 5.76036044,3.00147768 C5.77611851,3.0004928 5.79190349,3 5.80769231,3 Z M5.80769231,10 C5.36161616,10 5,9.63838384 5,9.19230769 C5,8.74623155 5.36161616,8.38461538 5.80769231,8.38461538 C6.25376845,8.38461538 6.61538462,8.74623155 6.61538462,9.19230769 C6.61538462,9.63838384 6.25376845,10 5.80769231,10 Z" fill="#FFFFFF"></path>
            <path d="M11,13 L9,13 L9,8 L11,8 L11,13 Z M11,14 L10,15 L9,14 L11,14 Z" fill="#AEBED9" transform="translate(10.000000, 11.500000) rotate(-315.000000) translate(-10.000000, -11.500000) "></path>
        </g>
    </g>
</svg>