<?xml version="1.0" encoding="UTF-8"?>
<svg width="16px" height="16px" viewBox="0 0 16 16" version="1.1" xmlns="http://www.w3.org/2000/svg" xmlns:xlink="http://www.w3.org/1999/xlink">
    <!-- Generator: Sketch 55.2 (78181) - https://sketchapp.com -->
    <title>icon/刷新</title>
    <desc>Created with Sketch.</desc>
    <g id="icon/刷新" stroke="none" stroke-width="1" fill="none" fill-rule="evenodd">
        <g id="刷新" fill-rule="nonzero">
            <rect id="矩形" fill="#000000" opacity="0" x="0" y="0" width="16" height="16"></rect>
            <path d="M13.34375,5.2390625 L13.3390625,5.2421875 C13.2515625,5.096875 13.090625,4.9984375 12.9078125,4.9984375 C12.6296875,4.9984375 12.4046875,5.2234375 12.4046875,5.5 C12.4046875,5.5828125 12.425,5.6609375 12.4609375,5.7296875 L12.459375,5.7296875 C12.803125,6.4078125 12.996875,7.175 12.996875,7.9875 C12.996875,10.746875 10.759375,12.984375 8,12.984375 C5.240625,12.984375 3.003125,10.7484375 3.003125,7.9875 C3.003125,5.60625 4.6671875,3.625 6.8953125,3.125 L6.3703125,3.8078125 C6.2015625,4.0265625 6.24375,4.3421875 6.4625,4.5109375 C6.68125,4.6796875 6.996875,4.6375 7.165625,4.41875 L8.3421875,2.890625 C8.44375,2.7984375 8.5078125,2.665625 8.5078125,2.51875 C8.5078125,2.3421875 8.415625,2.1875 8.278125,2.096875 L6.7078125,0.8921875 C6.4921875,0.7265625 6.1796875,0.7671875 6.0140625,0.98125 L6.0046875,0.99375 C5.8390625,1.209375 5.8796875,1.5203125 6.0953125,1.6859375 L6.6953125,2.146875 C4.015625,2.7484375 2.0140625,5.1421875 2.0140625,8.003125 C2.0140625,11.3171875 4.7015625,14.0046875 8.015625,14.0046875 C11.3296875,14.0046875 14.0171875,11.3171875 14.0171875,8.003125 C14.0171875,7.00625 13.775,6.065625 13.34375,5.2390625 Z" id="路径" fill="#4C84FF"></path>
            <path d="M11.0765625,4.0328125 C11.0765625,4.30981782 11.3018192,4.534375 11.5796875,4.534375 C11.8575558,4.534375 12.0828125,4.30981782 12.0828125,4.0328125 C12.0828125,3.75580718 11.8575558,3.53125 11.5796875,3.53125 C11.3018192,3.53125 11.0765625,3.75580718 11.0765625,4.0328125 Z" id="路径" fill="#4C84FF"></path>
        </g>
    </g>
</svg>