<?xml version="1.0" encoding="UTF-8"?>
<svg width="16px" height="16px" viewBox="0 0 16 16" version="1.1" xmlns="http://www.w3.org/2000/svg" xmlns:xlink="http://www.w3.org/1999/xlink">
    <!-- Generator: Sketch 55.2 (78181) - https://sketchapp.com -->
    <title>icon/密码</title>
    <desc>Created with Sketch.</desc>
    <g id="icon/密码" stroke="none" stroke-width="1" fill="none" fill-rule="evenodd">
        <g fill-rule="nonzero">
            <rect id="矩形" fill="#000000" opacity="0" x="0" y="0" width="16" height="16"></rect>
            <path d="M12.0144,6.60512 L5.81344,6.60512 C5.92,5.70656 5.14656,2.05344 8.0032,1.96448 C10.71936,1.86144 10.29664,5.29792 10.29664,5.29792 L11.62688,5.30688 C11.62688,5.30688 12.01344,0.70688 8.0032,0.68448 C3.62656,0.90656 4.65344,5.89344 4.52,6.60512 C4.55104,6.60512 4.59136,6.60512 4.63392,6.60512 C3.76064,6.60512 3.05248,7.3136 3.05248,8.18656 L3.05248,13.45824 C3.05248,14.33152 3.76096,15.03968 4.63392,15.03968 L12.0144,15.03968 C12.88768,15.03968 13.59584,14.3312 13.59584,13.45824 L13.59584,8.18656 C13.59584,7.3136 12.88736,6.60512 12.0144,6.60512 Z M8.8512,11.20352 L8.8512,12.40416 C8.8512,12.6944 8.6144,12.9312 8.32416,12.9312 C8.03392,12.9312 7.79712,12.6944 7.79712,12.40416 L7.79712,11.20352 C7.4832,11.0208 7.27008,10.68448 7.27008,10.29536 C7.27008,9.71296 7.74208,9.24096 8.32448,9.24096 C8.90688,9.24096 9.37888,9.71296 9.37888,10.29536 C9.37856,10.68448 9.16544,11.0208 8.8512,11.20352 Z" id="形状" fill="#AEBED9"></path>
        </g>
    </g>
</svg>