<?xml version="1.0" encoding="UTF-8"?>
<svg width="16px" height="16px" viewBox="0 0 16 16" version="1.1" xmlns="http://www.w3.org/2000/svg" xmlns:xlink="http://www.w3.org/1999/xlink">
    <!-- Generator: Sketch 55.2 (78181) - https://sketchapp.com -->
    <title>icon/待认领的试卷</title>
    <desc>Created with Sketch.</desc>
    <g id="icon/待认领的试卷" stroke="none" stroke-width="1" fill="none" fill-rule="evenodd">
        <g transform="translate(2.000000, 1.000000)" fill="#AEBED9" id="形状结合">
            <path d="M12,8.53512878 C11.4116533,8.19478857 10.7285743,8 10,8 C7.790861,8 6,9.790861 6,12 C6,12.7285743 6.19478857,13.4116533 6.53512878,14 L1,14 C0.44771525,14 -7.98684224e-14,13.5522847 -7.99360578e-14,13 L-7.99360578e-14,1 C-8.00036931e-14,0.44771525 0.44771525,-1.67490378e-15 1,-1.77635684e-15 L11,-1.77635684e-15 C11.5522847,-1.8778099e-15 12,0.44771525 12,1 L12,8.53512878 Z M9.12891292,10.9163048 C8.86442916,10.7419963 8.68988437,10.4423149 8.68988437,10.1018664 C8.68988437,9.56355337 9.1262733,9.12716444 9.66458632,9.12716444 C10.2028993,9.12716444 10.6392883,9.56355337 10.6392883,10.1018664 C10.6392883,10.4423149 10.4647435,10.7419963 10.2002597,10.9163048 C11.1978342,11.1571491 11.9388909,12.0556152 11.9388909,13.1271644 L7.39028178,13.1271644 C7.39028178,12.0556152 8.13133845,11.1571491 9.12891292,10.9163048 Z M2.5,6 C2.22385763,6 2,6.22385763 2,6.5 C2,6.77614237 2.22385763,7 2.5,7 L6.5,7 C6.77614237,7 7,6.77614237 7,6.5 C7,6.22385763 6.77614237,6 6.5,6 L2.5,6 Z M2.5,3 C2.22385763,3 2,3.22385763 2,3.5 C2,3.77614237 2.22385763,4 2.5,4 L9.5,4 C9.77614237,4 10,3.77614237 10,3.5 C10,3.22385763 9.77614237,3 9.5,3 L2.5,3 Z"></path>
        </g>
    </g>
</svg>