<?xml version="1.0" encoding="UTF-8"?>
<svg width="16px" height="16px" viewBox="0 0 16 16" version="1.1" xmlns="http://www.w3.org/2000/svg" xmlns:xlink="http://www.w3.org/1999/xlink">
    <!-- Generator: Sketch 55.2 (78181) - https://sketchapp.com -->
    <title>icon/待认领的试卷</title>
    <desc>Created with Sketch.</desc>
    <g id="icon/待认领的试卷" stroke="none" stroke-width="1" fill="none" fill-rule="evenodd">
        <g transform="translate(2.000000, 1.000000)">
            <path d="M12,8.53512878 C11.4116533,8.19478857 10.7285743,8 10,8 C7.790861,8 6,9.790861 6,12 C6,12.7285743 6.19478857,13.4116533 6.53512878,14 L1,14 C0.44771525,14 6.76353751e-17,13.5522847 0,13 L0,1 C-6.76353751e-17,0.44771525 0.44771525,1.01453063e-16 1,0 L11,0 C11.5522847,-1.01453063e-16 12,0.44771525 12,1 L12,8.53512878 Z" id="形状结合" fill="#AEBED9"></path>
            <path d="M9.12891292,10.9163048 C8.86442916,10.7419963 8.68988437,10.4423149 8.68988437,10.1018664 C8.68988437,9.56355337 9.1262733,9.12716444 9.66458632,9.12716444 C10.2028993,9.12716444 10.6392883,9.56355337 10.6392883,10.1018664 C10.6392883,10.4423149 10.4647435,10.7419963 10.2002597,10.9163048 C11.1978342,11.1571491 11.9388909,12.0556152 11.9388909,13.1271644 L7.39028178,13.1271644 C7.39028178,12.0556152 8.13133845,11.1571491 9.12891292,10.9163048 Z" id="形状结合" fill="#AEBED9"></path>
            <rect id="矩形" stroke="#FFFFFF" x="2.5" y="6.5" width="4" height="1" rx="0.5"></rect>
            <rect id="矩形备份-3" stroke="#FFFFFF" x="2.5" y="3.5" width="7" height="1" rx="0.5"></rect>
        </g>
    </g>
</svg>