<?xml version="1.0" encoding="UTF-8"?>
<svg width="16px" height="16px" viewBox="0 0 16 16" version="1.1" xmlns="http://www.w3.org/2000/svg" xmlns:xlink="http://www.w3.org/1999/xlink">
    <!-- Generator: Sketch 55.2 (78181) - https://sketchapp.com -->
    <title>icon/批改识别异常</title>
    <desc>Created with Sketch.</desc>
    <g id="icon/批改识别异常" stroke="none" stroke-width="1" fill="none" fill-rule="evenodd">
        <g transform="translate(2.000000, 1.000000)" fill="#AEBED9" id="形状结合">
            <path d="M12,8.12601749 C11.6803801,8.043753 11.3452996,8 11,8 C8.790861,8 7,9.790861 7,12 C7,12.7285743 7.19478857,13.4116533 7.53512878,14 L1,14 C0.44771525,14 6.76353751e-17,13.5522847 0,13 L0,1 C-6.76353751e-17,0.44771525 0.44771525,-1.67490378e-15 1,-1.77635684e-15 L11,-1.77635684e-15 C11.5522847,-1.8778099e-15 12,0.44771525 12,1 L12,8.12601749 Z M5.80769231,3 C5.79190349,3 5.77611851,3.0004928 5.76036044,3.00147768 C5.34210976,3.02761835 5.02424179,3.38786871 5.05038246,3.80611939 L5.23564246,6.77027938 C5.25452237,7.0723579 5.50502437,7.30769231 5.80769231,7.30769231 C6.11036025,7.30769231 6.36086225,7.0723579 6.37974215,6.77027938 L6.56500215,3.80611939 C6.56598703,3.79036132 6.56647983,3.77457634 6.56647983,3.75878752 C6.56647983,3.33972075 6.22675909,3 5.80769231,3 Z M5.80769231,10 C6.25376845,10 6.61538462,9.63838384 6.61538462,9.19230769 C6.61538462,8.74623155 6.25376845,8.38461538 5.80769231,8.38461538 C5.36161616,8.38461538 5,8.74623155 5,9.19230769 C5,9.63838384 5.36161616,10 5.80769231,10 Z M11,15 C9.34314575,15 8,13.6568542 8,12 C8,10.3431458 9.34314575,9 11,9 C12.6568542,9 14,10.3431458 14,12 C14,13.6568542 12.6568542,15 11,15 Z M10.0533998,11.9500502 C9.86548676,11.7477057 9.54912051,11.7360067 9.346776,11.9239197 C9.14443149,12.1118328 9.13273248,12.428199 9.32064552,12.6305435 L10.2612626,13.6433987 C10.4584881,13.8557709 10.7943847,13.8565018 10.9925326,13.64499 L12.8783722,11.6319619 C13.0671641,11.4304372 13.0568421,11.114023 12.8553173,10.9252311 C12.6537925,10.7364392 12.3373784,10.7467612 12.1485865,10.948286 L10.6292349,12.5701087 L10.0533998,11.9500502 Z"></path>
        </g>
    </g>
</svg>