<?xml version="1.0" encoding="UTF-8"?>
<svg width="16px" height="16px" viewBox="0 0 16 16" version="1.1" xmlns="http://www.w3.org/2000/svg" xmlns:xlink="http://www.w3.org/1999/xlink">
    <!-- Generator: Sketch 55.2 (78181) - https://sketchapp.com -->
    <title>icon/批改识别异常</title>
    <desc>Created with Sketch.</desc>
    <g id="icon/批改识别异常" stroke="none" stroke-width="1" fill="none" fill-rule="evenodd">
        <g transform="translate(2.000000, 1.000000)">
            <path d="M12,8.12601749 C11.6803801,8.043753 11.3452996,8 11,8 C8.790861,8 7,9.790861 7,12 C7,12.7285743 7.19478857,13.4116533 7.53512878,14 L1,14 C0.44771525,14 6.76353751e-17,13.5522847 0,13 L0,1 C-6.76353751e-17,0.44771525 0.44771525,1.01453063e-16 1,0 L11,0 C11.5522847,-1.01453063e-16 12,0.44771525 12,1 L12,8.12601749 Z" id="形状结合" fill="#AEBED9"></path>
            <path d="M5.80769231,3 C6.22675909,3 6.56647983,3.33972075 6.56647983,3.75878752 C6.56647983,3.77457634 6.56598703,3.79036132 6.56500215,3.80611939 L6.37974215,6.77027938 C6.36086225,7.0723579 6.11036025,7.30769231 5.80769231,7.30769231 C5.50502437,7.30769231 5.25452237,7.0723579 5.23564246,6.77027938 L5.05038246,3.80611939 C5.02424179,3.38786871 5.34210976,3.02761835 5.76036044,3.00147768 C5.77611851,3.0004928 5.79190349,3 5.80769231,3 Z M5.80769231,10 C5.36161616,10 5,9.63838384 5,9.19230769 C5,8.74623155 5.36161616,8.38461538 5.80769231,8.38461538 C6.25376845,8.38461538 6.61538462,8.74623155 6.61538462,9.19230769 C6.61538462,9.63838384 6.25376845,10 5.80769231,10 Z" id="形状结合" fill="#FFFFFF"></path>
            <circle id="椭圆形备份-2" fill="#AEBED9" cx="11" cy="12" r="3"></circle>
            <path d="M10.0283353,12.0561117 C9.82030095,11.8745179 9.5044449,11.8959522 9.32285112,12.1039866 C9.14125734,12.312021 9.16269169,12.6278771 9.37072609,12.8094709 L10.4120626,13.7184563 C10.6304066,13.9090494 10.9645395,13.8746656 11.1394929,13.6436003 L12.804583,11.4444759 C12.9712756,11.224321 12.9279358,10.9107191 12.7077809,10.7440265 C12.487626,10.5773339 12.1740241,10.6206737 12.0073315,10.8408286 L10.6658297,12.6125822 L10.0283353,12.0561117 Z" id="路径-4" fill="#FFFFFF" fill-rule="nonzero" transform="translate(11.052754, 12.242210) rotate(-354.000000) translate(-11.052754, -12.242210) "></path>
        </g>
    </g>
</svg>