<?xml version="1.0" encoding="UTF-8"?>
<svg width="16px" height="16px" viewBox="0 0 16 16" version="1.1" xmlns="http://www.w3.org/2000/svg" xmlns:xlink="http://www.w3.org/1999/xlink">
    <!-- Generator: Sketch 55.2 (78181) - https://sketchapp.com -->
    <title>icon/无法识别的试卷</title>
    <desc>Created with Sketch.</desc>
    <g id="icon/无法识别的试卷" stroke="none" stroke-width="1" fill="none" fill-rule="evenodd">
        <g transform="translate(2.000000, 1.000000)">
            <path d="M1,0 L8,0 L12,4 L12,13 C12,13.5522847 11.5522847,14 11,14 L1,14 C0.44771525,14 6.76353751e-17,13.5522847 0,13 L0,1 C-6.76353751e-17,0.44771525 0.44771525,1.01453063e-16 1,0 Z" id="矩形" fill="#AEBED9"></path>
            <path d="M6.133,4 C6.79,4 7.186,4.153 7.546,4.477 C7.897,4.792 8.077,5.224 8.077,5.764 C8.077,6.205 7.96,6.574 7.744,6.862 C7.663,6.961 7.411,7.195 6.979,7.564 C6.817,7.708 6.691,7.861 6.61,8.023 C6.511,8.203 6.457,8.35472325 6.457,8.57972325 L6.457,8.73272325 C6.41748011,8.97152017 6.25548011,9.09091863 5.971,9.09091863 C5.68651989,9.09091863 5.52751989,8.97152017 5.494,8.73272325 L5.494,8.57972325 C5.494,8.24672325 5.557,8.005 5.674,7.771 C5.8,7.519 6.142,7.15 6.7,6.655 L6.853,6.484 C7.015,6.277 7.096,6.061 7.096,5.827 C7.096,5.512 7.006,5.269 6.835,5.089 C6.655,4.909 6.403,4.819 6.079,4.819 C5.674,4.819 5.377,4.945 5.197,5.197 C5.035,5.413 4.954,5.728 4.954,6.124 C4.9144873,6.42830349 4.75983956,6.58045523 4.49005679,6.58045523 C4.22027401,6.58045523 4.05692175,6.42830349 4,6.124 C4,5.467 4.189,4.954 4.576,4.576 C4.954,4.189 5.476,4 6.133,4 Z M5.98,9.35138506 C6.169,9.35138506 6.331,9.40538506 6.457,9.53138506 C6.583,9.64838506 6.646,9.80138506 6.646,9.99038506 C6.646,10.1793851 6.583,10.3323851 6.457,10.4583851 C6.322,10.5753851 6.16,10.6383851 5.98,10.6383851 C5.791,10.6383851 5.638,10.5753851 5.521,10.4493851 C5.386,10.3233851 5.323,10.1703851 5.323,9.99038506 C5.323,9.80138506 5.386,9.64838506 5.521,9.53138506 C5.638,9.40538506 5.791,9.35138506 5.98,9.35138506 Z" id="?" fill="#FFFFFF" fill-rule="nonzero"></path>
        </g>
    </g>
</svg>