<?xml version="1.0" encoding="UTF-8"?>
<svg width="80px" height="80px" viewBox="0 0 80 80" version="1.1" xmlns="http://www.w3.org/2000/svg" xmlns:xlink="http://www.w3.org/1999/xlink">
    <!-- Generator: Sketch 55.2 (78181) - https://sketchapp.com -->
    <title>icon/无网络</title>
    <desc>Created with Sketch.</desc>
    <g id="icon/无网络" stroke="none" stroke-width="1" fill="none" fill-rule="evenodd">
        <g id="无网络" fill-rule="nonzero">
            <rect id="矩形" fill="#000000" opacity="0" x="0" y="0" width="80" height="80"></rect>
            <path d="M40.2849022,65.323003 C37.5508261,65.323003 35.4026236,67.4734468 35.4026236,70.2103752 C35.4026236,72.8495562 37.5508262,75 40.2849022,75 C43.0189783,75 45.167181,72.8495562 45.167181,70.2103752 C45.167181,67.4734468 42.9213328,65.323003 40.2849022,65.323003 Z M10.0147742,18.2087348 C6.89011581,20.0659362 3.86310301,22.21638 1.03138137,24.6600661 C-0.23801107,25.735288 -0.335656685,27.6902369 0.738444683,28.9609537 C1.81254597,30.2316704 3.76545748,30.3294179 5.03484992,29.254196 C7.96421718,26.7127624 11.0888755,24.5623187 14.4088251,22.7051173 L10.0147742,18.2087348 L10.0147742,18.2087348 Z M78.9525497,24.6600661 C68.1138909,15.2763115 54.345865,10.095697 39.9919656,10.095697 C33.8402944,10.095697 27.6886232,11.0731714 21.9275343,12.9303728 L26.809813,17.9154925 C31.1062182,16.8402706 35.5979147,16.253786 40.0896111,16.2537859 C52.9788269,16.2537859 65.3798148,20.8479158 75.0467267,29.254196 C75.6326002,29.7429332 76.3161192,30.0361756 76.9996382,30.0361756 C77.8784484,30.0361756 78.659613,29.6451858 79.343132,28.9609537 C80.3195878,27.690237 80.2219422,25.735288 78.9525497,24.6600661 Z M23.0992812,31.5023873 C19.0958127,33.2618413 15.2876353,35.6077799 11.9676857,38.6379507 C10.6982933,39.7131725 10.6006477,41.6681214 11.7723946,42.9388383 C12.9441415,44.209555 14.7994074,44.3073025 16.0687998,43.1343331 C19.4863949,40.1041624 23.4898635,37.7582237 27.6886232,36.1942646 L23.0992812,31.5023873 L23.0992812,31.5023873 Z M39.5037377,28.1789741 C38.6249276,28.1789741 37.7461174,28.1789741 36.8673071,28.2767215 L42.9213328,34.4348106 C50.3423965,35.1190426 57.3728778,38.2469609 63.0363211,43.2320806 C63.6221945,43.7208177 64.3057135,44.0140601 65.0868781,44.0140601 C65.9656883,44.0140601 66.7468529,43.6230703 67.3327264,43.0365857 C68.5044733,41.7658689 68.3091822,39.81092 67.1374353,38.7356982 C59.5210805,31.8933771 49.6588775,28.1789741 39.5037377,28.1789741 L39.5037377,28.1789741 Z M44.4836619,53.3978148 L37.8437629,46.6532411 C32.6685475,47.0442309 27.6886232,49.0969272 23.7828002,52.7135826 C22.5134078,53.886552 22.4157622,55.7437534 23.5875091,57.0144702 C24.759256,58.285187 26.6145219,58.3829345 27.8839144,57.2099651 C31.1062183,54.2775418 35.2073325,52.7135827 39.5037377,52.7135826 C41.2613581,52.7135826 42.9213328,52.9090775 44.4836619,53.3978148 Z M8.74538178,5.59931447 C7.96421718,4.81733491 6.79247027,4.81733491 6.10895128,5.50156707 C5.4254323,6.18579914 5.32778668,7.35876849 6.10895128,8.04300056 L59.2281437,62.1950848 C59.618726,62.5860746 60.1069538,62.7815695 60.4975361,62.7815695 C60.985764,62.7815695 61.3763463,62.5860746 61.7669287,62.2928322 C62.4504476,61.6086001 62.5480933,60.4356308 61.7669287,59.7513987 L8.74538178,5.59931447 Z" id="形状" fill="#D0E1F1"></path>
        </g>
    </g>
</svg>