<?xml version="1.0" encoding="UTF-8"?>
<svg width="16px" height="16px" viewBox="0 0 16 16" version="1.1" xmlns="http://www.w3.org/2000/svg" xmlns:xlink="http://www.w3.org/1999/xlink">
    <!-- Generator: Sketch 55.2 (78181) - https://sketchapp.com -->
    <title>icon/用户</title>
    <desc>Created with Sketch.</desc>
    <g id="icon/用户" stroke="none" stroke-width="1" fill="none" fill-rule="evenodd">
        <g fill-rule="nonzero">
            <rect id="矩形" fill="#000000" opacity="0" x="0" y="0" width="16" height="16"></rect>
            <path d="M7.8515,0.9865 C9.8185,0.9865 11.413,2.555 11.413,4.4895 C11.413,6.4245 9.8185,7.993 7.8515,7.993 C5.8845,7.993 4.29,6.4245 4.29,4.4895 C4.29,2.5545 5.885,0.9865 7.8515,0.9865 L7.8515,0.9865 Z M7.8515,0.9865 C9.8185,0.9865 11.413,2.555 11.413,4.4895 C11.413,6.4245 9.8185,7.993 7.8515,7.993 C5.8845,7.993 4.29,6.4245 4.29,4.4895 C4.29,2.5545 5.885,0.9865 7.8515,0.9865 L7.8515,0.9865 Z M6.516,9.161 L9.4845,9.161 C12.0255,9.161 14.085,11.1865 14.085,13.686 L14.085,13.9775 C14.085,14.9625 12.025,15 9.4845,15 L6.516,15 C3.975,15 1.9155,14.9985 1.9155,13.9775 L1.9155,13.686 C1.9155,11.1865 3.975,9.161 6.516,9.161 L6.516,9.161 Z" id="形状" fill="#AEBED9"></path>
        </g>
    </g>
</svg>