<?xml version="1.0" encoding="UTF-8"?>
<svg width="16px" height="16px" viewBox="0 0 16 16" version="1.1" xmlns="http://www.w3.org/2000/svg" xmlns:xlink="http://www.w3.org/1999/xlink">
    <!-- Generator: Sketch 55.2 (78181) - https://sketchapp.com -->
    <title>icon/缺失的学生试卷</title>
    <desc>Created with Sketch.</desc>
    <g id="icon/缺失的学生试卷" stroke="none" stroke-width="1" fill="none" fill-rule="evenodd">
        <g transform="translate(1.000000, 2.000000)" fill="#AEBED9">
            <path d="M4.97347105,2.06386846 C4.92301188,2.325058 4.89646134,2.59598389 4.89646134,2.87373737 C4.89646134,3.6665401 5.11427211,4.42171413 5.50655574,5.05470675 C3.76085543,6.05192931 2.51340607,7.87321314 2.12656578,10 L4.53859172e-13,10 C4.53859172e-13,8.10244479 1.20404349,6.48263717 2.89873098,5.84516922 C2.45993966,5.43964867 2.18571429,4.86256447 2.18571429,4.22222222 C2.18571429,2.99492278 3.1930736,2 4.43571429,2 C4.62105447,2 4.80116064,2.02213285 4.97347105,2.06386846 Z M5.98165418,2.60759787 C6.41521739,3.01267184 6.68571429,3.58624805 6.68571429,4.22222222 C6.68571429,4.39124761 6.66660752,4.55586547 6.63041079,4.71408389 C6.20962725,4.2201013 5.96985583,3.56865104 5.96985583,2.87373737 C5.96985583,2.78392915 5.97385026,2.69514811 5.98165418,2.60759787 Z M6.32185336,5.93487109 C7.89948645,6.62558347 9,8.18585904 9,10 L3.22579011,10 C3.62213695,8.19850107 4.76374609,6.68665795 6.32185336,5.93487109 Z" id="形状结合"></path>
            <path d="M7.08732141,5.31130763 C6.42311057,4.76103473 6,3.92992875 6,3 C6,1.34314575 7.34314575,0 9,0 C10.6568542,0 12,1.34314575 12,3 C12,3.92992875 11.5768894,4.76103473 10.9126786,5.31130763 C13.2885639,6.10981995 15,8.35504632 15,11 L3,11 C3,8.35504632 4.71143605,6.10981995 7.08732141,5.31130763 Z" id="形状结合备份-4"></path>
        </g>
    </g>
</svg>