<?xml version="1.0" encoding="UTF-8"?>
<svg width="79px" height="84px" viewBox="0 0 79 84" version="1.1" xmlns="http://www.w3.org/2000/svg" xmlns:xlink="http://www.w3.org/1999/xlink">
    <!-- Generator: Sketch 55.2 (78181) - https://sketchapp.com -->
    <title>icon/试卷扫描异常</title>
    <desc>Created with Sketch.</desc>
    <defs>
        <linearGradient x1="50%" y1="0%" x2="164.690476%" y2="149.047223%" id="linearGradient-1">
            <stop stop-color="#FFF0CA" offset="0%"></stop>
            <stop stop-color="#FEA500" offset="100%"></stop>
        </linearGradient>
        <linearGradient x1="30.7073223%" y1="9.8282045%" x2="97.4058385%" y2="111.740074%" id="linearGradient-2">
            <stop stop-color="#FFEBB7" offset="0%"></stop>
            <stop stop-color="#FEA500" offset="100%"></stop>
        </linearGradient>
    </defs>
    <g id="icon/试卷扫描异常" stroke="none" stroke-width="1" fill="none" fill-rule="evenodd">
        <g>
            <g id="矩形" fill-rule="nonzero">
                <path d="M39.48,80.96 C62.3887714,80.96 80.96,62.3887714 80.96,39.48 C80.96,16.5712286 62.3887714,-2 39.48,-2 C16.5712286,-2 -2,16.5712286 -2,39.48 C-2,62.3887714 16.5712286,80.96 39.48,80.96 Z M39.48,78.96 C17.6757981,78.96 0,61.2842019 0,39.48 C0,17.6757981 17.6757981,0 39.48,0 C61.2842019,0 78.96,17.6757981 78.96,39.48 C78.96,61.2842019 61.2842019,78.96 39.48,78.96 Z" id="椭圆形" fill="url(#linearGradient-1)" opacity="0.299999982"></path>
                <path d="M39.48,68.88 C55.7171716,68.88 68.88,55.7171716 68.88,39.48 C68.88,23.2428284 55.7171716,10.08 39.48,10.08 C23.2428284,10.08 10.08,23.2428284 10.08,39.48 C10.08,55.7171716 23.2428284,68.88 39.48,68.88 Z M39.48,60.88 C27.6611064,60.88 18.08,51.2988936 18.08,39.48 C18.08,27.6611064 27.6611064,18.08 39.48,18.08 C51.2988936,18.08 60.88,27.6611064 60.88,39.48 C60.88,51.2988936 51.2988936,60.88 39.48,60.88 Z" id="Mask" fill="url(#linearGradient-2)"></path>
            </g>
            <circle id="椭圆形" fill="#FFE3A2" cx="12.4" cy="4" r="4"></circle>
            <circle id="椭圆形-copy" fill="#FFD275" cx="24.34" cy="81.5" r="2.5"></circle>
            <path d="M41.8495114,51.1430769 C42.5116612,50.4927421 42.84,49.7046244 42.84,48.7732127 C42.84,47.8528235 42.5061889,47.0536833 41.8495114,46.3868145 C41.1873616,45.7199457 40.3938762,45.3837557 39.48,45.3837557 C38.5661238,45.3837557 37.7726384,45.7199457 37.1104886,46.3868145 C36.4483388,47.0536833 36.12,47.8528235 36.12,48.7732127 C36.12,49.6991131 36.4538111,50.4872308 37.1104886,51.1430769 C37.6194137,51.639095 38.2049511,51.9477285 38.8561564,52.0634661 C39.0641042,52.0744887 39.2665798,52.08 39.48,52.08 C39.6934202,52.08 39.8958958,52.0744887 40.1038436,52.0634661 C40.7605212,51.9477285 41.3405863,51.6446063 41.8495114,51.1430769 L41.8495114,51.1430769 Z M41.0888599,43.3555928 C41.526645,38.6489321 42.84,32.1786516 42.84,31.2968416 C42.84,30.2717376 42.5280782,29.4229955 41.8987622,28.7395928 C41.2694463,28.0617014 40.4650163,27.72 39.4854723,27.72 C38.5059283,27.72 37.7014984,28.0672127 37.0667101,28.7561267 C36.4373941,29.4395294 36.1254723,30.2882715 36.1254723,31.2968416 C36.1254723,32.1786516 37.5482736,38.6489321 37.9313355,43.3555928 L41.0888599,43.3555928 Z" id="形状" fill="#E6704C" fill-rule="nonzero"></path>
        </g>
    </g>
</svg>