<?xml version="1.0" encoding="UTF-8"?>
<svg width="16px" height="16px" viewBox="0 0 16 16" version="1.1" xmlns="http://www.w3.org/2000/svg" xmlns:xlink="http://www.w3.org/1999/xlink">
    <!-- Generator: Sketch 55.2 (78181) - https://sketchapp.com -->
    <title>icon/信息/16</title>
    <desc>Created with Sketch.</desc>
    <defs>
        <path d="M8.86425781,3 C9.14681131,3 9.38492742,3.09798079 9.57861328,3.29394531 C9.77229915,3.48990983 9.86914062,3.72688663 9.86914062,4.00488281 C9.86914062,4.28287899 9.77115983,4.51985579 9.57519531,4.71582031 C9.37923079,4.91178483 9.14225399,5.00976562 8.86425781,5.00976562 C8.59081895,5.00976562 8.35612077,4.91178483 8.16015625,4.71582031 C7.96419173,4.51985579 7.86621094,4.28287899 7.86621094,4.00488281 C7.86621094,3.72688663 7.96305242,3.48990983 8.15673828,3.29394531 C8.35042415,3.09798079 8.58626163,3 8.86425781,3 Z M9.28808594,6.14453125 L7.88671875,11.0048828 C7.8092444,11.282879 7.77050781,11.4651688 7.77050781,11.5517578 C7.77050781,11.6018883 7.79101542,11.6486 7.83203125,11.6918945 C7.87304708,11.735189 7.91634092,11.7568359 7.96191406,11.7568359 C8.03938841,11.7568359 8.11686159,11.7226566 8.19433594,11.6542969 C8.39941509,11.4856762 8.64550638,11.1803408 8.93261719,10.7382812 L9.16503906,10.875 C8.47688458,12.0735737 7.74544658,12.6728516 6.97070312,12.6728516 C6.67447769,12.6728516 6.4386402,12.5896818 6.26318359,12.4233398 C6.08772699,12.2569979 6,12.0462252 6,11.7910156 C6,11.622395 6.03873659,11.4082044 6.11621094,11.1484375 L7.06640625,7.88085938 C7.15755254,7.56640468 7.203125,7.32942788 7.203125,7.16992188 C7.203125,7.06966096 7.15983116,6.98079466 7.07324219,6.90332031 C6.98665321,6.82584597 6.86816481,6.78710938 6.71777344,6.78710938 C6.64941372,6.78710938 6.56738329,6.789388 6.47167969,6.79394531 L6.56054688,6.52050781 L8.87792969,6.14453125 L9.28808594,6.14453125 Z" id="path-1"></path>
    </defs>
    <g id="icon/信息/16" stroke="none" stroke-width="1" fill="none" fill-rule="evenodd">
        <path d="M2.32142857,2.35714286 C3.892864,0.785707429 5.78570286,0 8,0 C10.2142971,0 12.1011817,0.779753143 13.6607131,2.33928686 C15.2202469,3.89881829 16,5.78570286 16,8 C16,10.2142971 15.2202469,12.1011817 13.6607131,13.6607131 C12.1011817,15.2202459 10.2142971,16 8,16 C5.78570286,16 3.89881829,15.2202459 2.33928686,13.6607131 C0.779754057,12.1011817 0,10.2142971 0,8 C0,5.78570286 0.773801829,3.90477029 2.32142857,2.35714286 Z" id="路径" fill="#4C84FF"></path>
        <g id="i" fill-rule="nonzero">
            <use fill="#2D4A66" xlink:href="#path-1"></use>
            <use fill="#FFFFFF" xlink:href="#path-1"></use>
        </g>
    </g>
</svg>