<?xml version="1.0" encoding="UTF-8"?>
<svg width="298px" height="41px" viewBox="0 0 298 41" version="1.1" xmlns="http://www.w3.org/2000/svg" xmlns:xlink="http://www.w3.org/1999/xlink">
    <!-- Generator: Sketch 55.2 (78181) - https://sketchapp.com -->
    <title>编组 7</title>
    <desc>Created with Sketch.</desc>
    <g id="登录，扫描前" stroke="none" stroke-width="1" fill="none" fill-rule="evenodd">
        <g id="登录加载" transform="translate(-71.000000, -50.000000)" fill="#FFFFFF">
            <g id="编组-7" transform="translate(71.000000, 50.000000)">
                <g id="logo" fill-rule="nonzero">
                    <g id="XMLID_12952_" transform="translate(42.430279, 11.181818)">
                        <g id="XMLID_12954_">
                            <g id="XMLID_12964_">
                                <path d="M20.9216392,0 L12.092086,17.5014611 L16.493916,17.5014611 L18.4100067,13.6859767 L25.1681105,13.6859767 L25.6600797,17.5014611 L30.0619097,17.5014611 L27.7833154,0 L20.9216392,0 Z M20.4296699,9.67695321 L23.7698821,3.06897659 L24.624355,9.67695321 L20.4296699,9.67695321 Z" id="XMLID_12967_"></path>
                                <polygon id="XMLID_12966_" points="0.802686651 0 0.0517862355 4.03667191 6.08488267 4.03667191 3.54735713 17.5014611 8.57062198 17.5014611 11.0822544 4.03667191 16.701061 4.03667191 18.7207241 0"></polygon>
                                <polygon id="XMLID_12965_" points="44.4325901 17.5014611 45.1834905 13.4647892 36.5610823 13.4647892 39.0727147 0 34.3860604 0 31.0976344 17.5014611"></polygon>
                            </g>
                            <g id="XMLID_12955_" transform="translate(48.679061, 0.000000)">
                                <path d="M19.5234108,1.41007033 C19.0832278,0.635914068 17.9439306,0.663439624 17.9439306,0.663439624 L12.6876277,0.663439624 L12.1697653,3.42840628 L15.2251532,3.42840628 L15.2251532,3.42840628 C15.3546188,3.42840628 16.053733,3.40075784 15.5617638,4.42375004 L14.293001,6.63562506 L10.8233232,6.63562506 L9.68402604,9.70460165 L13.4644212,9.70460165 L12.6358415,13.5200861 L12.6358415,13.5200861 C12.6358415,13.5200861 12.532269,14.6813204 11.1599338,14.8748595 L10.0206366,14.8748595 L9.52866734,17.4738127 L12.5581621,17.4738127 C12.5581621,17.4738127 13.7233524,17.4461642 14.4224666,16.8102502 C15.0697945,16.2019845 15.1474739,15.344883 15.1474739,15.344883 L16.3126642,9.70460165 L19.1868003,9.70460165 L19.7564489,6.60797662 L17.2707095,6.60797662 L19.5234108,3.20721878 C19.5234108,3.20721878 20.01538,2.29482033 19.5234108,1.41007033 Z" id="XMLID_12962_"></path>
                                <path d="M52.2782048,0.608265631 C52.2782048,0.608265631 52.3040979,0.331781253 52.2005254,0.221187502 C52.0710598,0.0552968755 51.8639149,0.0552968755 51.8639149,0.0552968755 L49.3004962,0.0552968755 L49.2746031,0.221187502 L49.2746031,0.221187502 L49.2746031,0.221187502 L49.24871,0.387078129 L49.24871,0.387078129 L49.0933513,1.16123439 L43.3450791,1.16123439 L42.7754305,4.14726566 L47.6692298,4.14726566 L48.5237027,4.14726566 L48.0058403,6.82916412 C47.9799472,6.91210944 47.8763747,7.27153913 47.3844055,7.38213288 L47.3067262,7.38213288 C47.3067262,7.38213288 47.3067262,7.38213288 47.280833,7.38213288 C46.9442225,7.35448444 46.84065,7.07800006 46.7888638,6.91210944 L46.7629707,6.82916412 C46.7629707,6.82916412 46.7629707,6.80151569 46.7629707,6.80151569 L46.7629707,6.80151569 L46.4263602,5.58498443 C46.4263602,5.58498443 46.3745739,5.22555473 46.1156427,5.05966411 C45.9084978,4.94907036 45.4683148,4.92142192 45.4683148,4.92142192 L43.5004378,4.92142192 C43.5004378,4.92142192 43.3968654,4.92142192 43.319186,5.00436723 C43.2415067,5.11496098 43.2673998,5.22555473 43.2673998,5.22555473 L43.7075828,6.91210944 C43.7075828,7.1056485 43.6040103,7.35448444 43.0602548,7.38213288 C43.0602548,7.38213288 43.0343617,7.38213288 43.0343617,7.38213288 L40.5486224,7.38213288 L39.9789738,10.4511095 L43.3968654,10.4511095 C43.6040103,10.5064063 43.8629415,10.6170001 43.7075828,10.9764298 C43.0602548,12.1376642 41.8691714,13.4924376 39.7200427,14.4048361 L39.1762872,17.6397033 C39.1762872,17.6397033 45.1575974,16.0084455 47.3067262,10.672297 L47.3067262,10.672297 L46.0120703,17.4185158 L49.1192444,17.4185158 L50.3103278,11.1699689 C51.2942663,15.7043126 56.2398518,18.2203205 56.2398518,18.2203205 L56.8871797,14.653672 C54.8675165,13.768922 53.8058987,12.192961 53.2621432,11.0317267 C53.0808914,10.5893517 53.4433951,10.423461 53.65054,10.423461 L57.6898664,10.423461 L58.259515,7.35448444 L55.7478825,7.35448444 C55.4371651,7.27153913 55.5925238,6.93975788 55.5925238,6.93975788 L55.5925238,6.93975788 L56.4469967,5.4190938 C56.4469967,5.4190938 56.498783,5.28085161 56.4728898,5.22555473 C56.4211036,5.17025786 56.2657449,5.17025786 56.2657449,5.17025786 L54.2460817,5.17025786 C54.2460817,5.17025786 53.7800056,5.14260942 53.4175019,5.33614849 C53.1585708,5.47439067 52.9514258,5.8614688 52.9514258,5.8614688 L52.4076704,6.74621881 L52.4076704,6.74621881 C52.4076704,6.74621881 52.3817772,6.77386725 52.3817772,6.80151569 L52.3558841,6.85681256 C52.2523117,7.02270319 52.0451667,7.326836 51.7603424,7.35448444 L51.6308768,7.35448444 C51.6049837,7.35448444 51.6049837,7.35448444 51.5790906,7.35448444 C51.2424801,7.35448444 51.1389076,7.16094538 51.1130145,6.99505475 L51.6308768,4.09196879 L57.4050421,4.09196879 L57.9487976,1.10593751 L52.2005254,1.10593751 L52.2782048,0.608265631 Z" id="XMLID_12961_"></path>
                                <path d="M34.5414191,9.67695321 L38.2441349,9.67695321 L38.8137835,6.60797662 L32.1333591,6.60797662 L32.4181834,5.11496098 C32.4181834,5.11496098 32.4699697,4.92142192 32.5217559,4.58964067 C32.8583664,4.58964067 37.7521657,4.58964067 37.7521657,4.58964067 L38.3218143,1.52066408 L33.1431907,1.52066408 L33.1172976,1.52066408 C33.194977,1.07828907 33.2467632,0.801804695 33.2467632,0.801804695 C33.2467632,0.801804695 33.3244426,0.387078129 33.1431907,0.221187502 C32.9360458,0.0552968755 32.6771146,0.0552968755 32.6771146,0.0552968755 L30.2690547,0.0552968755 L30.113696,0.912398446 C30.113696,0.912398446 30.0619097,1.16123439 29.9842304,1.54831251 L24.4948894,1.54831251 L23.9252408,4.6172891 L29.3369024,4.6172891 L29.4145818,4.6172891 L29.3886887,4.75553129 L29.026185,6.63562506 L22.0091501,6.63562506 L21.4395015,9.70460165 L24.9091793,9.70460165 C25.064538,9.75989853 25.3234692,9.89814071 25.1681105,10.3128673 C25.1422173,10.3405157 25.1422173,10.3681642 25.1422173,10.3958126 C24.4948894,11.4741017 22.9154092,13.2988986 20.5591355,14.3495392 L19.9377007,17.6950002 C19.9377007,17.6950002 26.4886595,15.787258 28.3270708,10.423461 L27.0065218,17.5014611 L30.1395891,17.5014611 L31.3047794,11.2252657 C32.2369316,15.6213673 36.7682272,17.8332423 36.7682272,17.8332423 L37.4155552,14.4324845 C35.3699989,13.3818439 34.5932053,11.4464532 34.2824879,10.2852188 L34.2824879,10.2852188 C34.2307017,10.2575704 34.0235567,9.78754696 34.5414191,9.67695321 Z" id="XMLID_12960_"></path>
                                <path d="M9.16616369,2.37776565 L7.97508027,2.37776565 C8.10454586,1.88009377 8.28579768,1.2441797 8.41526327,0.718859382 L8.41526327,0.718859382 C8.44115639,0.635914068 8.51883574,0.331781253 8.3116908,0.165890627 C8.18222521,0.0276484378 8.00097339,0 7.92329404,0 C7.92329404,0 7.89740092,0 7.89740092,0 C7.8715078,0 7.8715078,0 7.8715078,0 L7.8715078,0 L5.51523408,0 C5.51523408,0 5.41166161,0.967695321 5.07505108,2.40541408 L3.00360166,2.43306252 L2.40805995,5.58498443 L4.14289884,5.58498443 C3.54735713,7.27153913 2.69288425,9.09633602 1.52769395,10.6999454 C1.52769395,10.6999454 2.51163242,11.3635079 3.78039519,12.7459298 C2.92592231,13.6583282 1.99377007,14.4048361 0.621434826,15.0131017 L0,18.3309142 C0,18.3309142 2.66699113,17.7226486 5.5411272,14.8195626 C6.05898956,15.5937189 6.68042438,16.3402267 7.17239362,17.3355705 L8.93312563,14.4048361 C8.93312563,14.4048361 8.36347704,13.5200861 7.4313248,12.5247423 C9.11437745,10.1746251 10.331354,5.75087505 10.6679645,4.53434379 C11.2635062,2.43306252 9.16616369,2.37776565 9.16616369,2.37776565 Z M5.48934097,10.9487813 C5.17862355,10.6999454 4.91969238,10.423461 4.58308184,10.1746251 C4.58308184,10.1746251 5.72237903,8.01804695 6.75810374,5.58498443 L7.48311103,5.58498443 C7.61257662,5.61263286 7.8715078,5.72322661 7.81972157,6.11030474 C7.58668351,6.93975788 6.65453127,9.23457821 5.48934097,10.9487813 Z" id="XMLID_12956_"></path>
                            </g>
                        </g>
                    </g>
                    <g id="XMLID_12946_">
                        <g id="XMLID_12947_">
                            <path d="M12.7619965,11.2268456 C13.1753405,11.2818792 13.2528425,11.6946309 13.2528425,11.6946309 L13.6661866,14.2536913 C13.6661866,14.2536913 13.7436886,14.8040268 13.5886846,15.1892617 C13.4078465,15.6020134 12.8911665,15.8771812 12.8911665,15.8771812 L4.28844418,19.3442953 C4.28844418,19.3442953 4.13344017,19.3718121 4.03010417,19.3442953 C3.92676816,19.2892617 3.92676816,19.1791946 3.92676816,19.1791946 L3.66842815,18.1610738 C3.66842815,18.1610738 3.61676015,18.0510067 3.69426215,17.9409396 C3.74593015,17.8583893 3.82343216,17.7758389 3.82343216,17.7758389 L12.1161465,11.4469799 C12.1161465,11.4469799 12.4003205,11.1718121 12.7619965,11.2268456 Z" id="XMLID_12951_"></path>
                            <path d="M21.0547109,11.2268456 C20.6413668,11.2818792 20.5638648,11.6946309 20.5638648,11.6946309 L20.1505208,14.2536913 C20.1505208,14.2536913 20.0730188,14.8040268 20.2280228,15.1892617 C20.4088608,15.6020134 20.9255409,15.8771812 20.9255409,15.8771812 L29.5282632,19.3442953 C29.5282632,19.3442953 29.6832672,19.3718121 29.7866032,19.3442953 C29.8899392,19.2892617 29.8899392,19.1791946 29.8899392,19.1791946 L30.1482792,18.1610738 C30.1482792,18.1610738 30.1999472,18.0510067 30.1224452,17.9409396 C30.0707772,17.8583893 29.9932752,17.7758389 29.9932752,17.7758389 L21.7005609,11.4469799 C21.7263949,11.4469799 21.4163869,11.1718121 21.0547109,11.2268456 Z" id="XMLID_12950_"></path>
                            <path d="M0.180838007,24.4899329 C0.206672008,24.3798658 0.387510016,24.2973154 0.387510016,24.2973154 L13.3561785,17.0604027 C14.6737126,16.3174497 14.6737126,14.6389262 14.6737126,14.6389262 L14.8803846,9.87852349 L14.8803846,9.87852349 C14.8028826,8.99798658 13.8470246,9.3557047 13.6145186,9.46577181 L5.42514022,13.9234899 C5.42514022,13.9234899 5.32180422,14.0060403 5.16680021,13.9510067 C5.06346421,13.9234899 5.01179621,13.785906 5.01179621,13.785906 L4.65012019,12.8228188 C4.65012019,12.8228188 4.59845219,12.6577181 4.62428619,12.5751678 C4.65012019,12.4651007 4.75345619,12.4100671 4.75345619,12.4100671 L13.8728586,4.32013423 C14.8803846,3.49463087 15.1387246,2.64161074 15.2162266,2.28389262 C15.2162266,2.28389262 15.3712306,1.59597315 15.5262346,1.18322148 C15.5262346,1.1557047 15.5262346,1.1557047 15.5520686,1.12818792 C15.6037366,1.01812081 15.6295706,0.93557047 15.6554046,0.908053691 L15.6554046,0.908053691 C15.9137447,0.467785235 16.3787567,0.19261745 16.9212707,0.19261745 C17.4637847,0.19261745 17.9029627,0.495302013 18.1871367,0.908053691 L18.1871367,0.908053691 C18.2129707,0.963087248 18.2646387,1.04563758 18.2904727,1.12818792 C18.2904727,1.1557047 18.3163068,1.1557047 18.3163068,1.18322148 C18.4713108,1.59597315 18.6263148,2.25637584 18.6263148,2.25637584 C18.7038168,2.61409396 18.9621568,3.46711409 19.9696828,4.29261745 L29.0890852,12.3825503 C29.0890852,12.3825503 29.1665872,12.4651007 29.2182552,12.547651 C29.2440892,12.6577181 29.1924212,12.795302 29.1924212,12.795302 L28.8307452,13.7583893 C28.8307452,13.7583893 28.7790772,13.8959732 28.6757412,13.9234899 C28.5207372,13.9785235 28.4174012,13.8959732 28.4174012,13.8959732 L20.2280228,9.43825503 C20.0213508,9.32818792 19.0654928,8.94295302 18.9621568,9.85100671 L18.9621568,9.85100671 L19.1688288,14.6114094 C19.1688288,14.6114094 19.1688288,16.2899329 20.4863628,17.0328859 L33.4550314,24.2697987 C33.4550314,24.2697987 33.6358694,24.352349 33.6617034,24.4624161 C33.7133714,24.5724832 33.6617034,24.7926174 33.6617034,24.7926174 L33.1966914,26.8838926 C33.1966914,26.8838926 33.1708574,27.0765101 33.0416874,27.1315436 C32.8866833,27.214094 32.6800113,27.1315436 32.6800113,27.1315436 L24.723139,24.0771812 C24.619803,24.0496644 24.387297,24.0221477 24.438965,24.2422819 C24.438965,24.2422819 24.438965,24.2422819 24.438965,24.2422819 L30.9491333,30.8738255 C30.9491333,30.8738255 31.1041373,31.0114094 31.1041373,31.1765101 C31.1299713,31.3416107 30.9749673,31.5342282 30.9749673,31.5342282 L28.3657332,34.7536913 C28.3657332,34.7536913 28.1073932,35.0838926 27.7457171,35.0838926 C27.4098751,35.0838926 27.1257011,34.6986577 27.1257011,34.6986577 L20.4088608,25.838255 C20.2538568,25.590604 19.6338408,25.4530201 19.6596748,26.1684564 L20.2538568,39.9818792 C20.2538568,39.9818792 20.2538568,40.257047 20.1246868,40.4221477 C19.9696828,40.6147651 19.6596748,40.6147651 19.6596748,40.6147651 L14.2345346,40.6147651 C14.2345346,40.6147651 13.9245266,40.6147651 13.7695226,40.4221477 C13.6403526,40.2845638 13.6403526,39.9818792 13.6403526,39.9818792 L14.2345346,26.1684564 C14.2603686,25.4805369 13.6403526,25.590604 13.4853486,25.838255 L6.76850828,34.6986577 C6.76850828,34.6986577 6.48433427,35.0563758 6.14849225,35.0838926 C5.78681624,35.0838926 5.52847623,34.7536913 5.52847623,34.7536913 L2.91924212,31.5342282 C2.91924212,31.5342282 2.76423811,31.3416107 2.79007211,31.1765101 C2.81590612,31.0114094 2.94507612,30.8738255 2.94507612,30.8738255 L9.45524439,24.2422819 C9.45524439,24.2422819 9.45524439,24.2422819 9.45524439,24.2422819 C9.53274639,24.0221477 9.27440638,24.0496644 9.17107038,24.0771812 L1.21419805,27.1315436 C1.21419805,27.1315436 1.03336004,27.214094 0.852522035,27.1315436 C0.72335203,27.0765101 0.697518029,26.8838926 0.697518029,26.8838926 L0.23250601,24.7926174 C0.180838007,24.7926174 0.129170005,24.6 0.180838007,24.4899329 Z" id="XMLID_12948_"></path>
                        </g>
                    </g>
                    <g id="XMLID_12908_" transform="translate(52.589641, 33.545455)">
                        <path d="M0.129852284,4.39868212 L0.129852284,3.83834045 L1.09075919,3.83834045 L1.37643421,1.98921293 L6.05111644,1.98921293 L5.99917553,3.83834045 L6.93411197,3.83834045 L6.93411197,4.39868212 L5.97320507,4.39868212 C5.97320507,4.53876754 5.97320507,4.76290421 5.94723461,5.04307505 C5.94723461,5.32324588 5.94723461,5.54738255 5.92126416,5.68746797 L6.6744074,5.68746797 L6.6744074,6.24780964 L5.86932324,6.24780964 C5.84335279,6.97625381 5.47976639,7.3404759 4.72662314,7.3404759 C4.36303675,7.3404759 3.97347989,7.3404759 3.58392304,7.3404759 C3.48004121,7.0042709 3.45407076,6.78013423 3.45407076,6.69608298 C3.55795259,6.72410006 3.92153898,6.72410006 4.54482994,6.72410006 C4.98632771,6.75211714 5.19409137,6.58401464 5.24603228,6.24780964 L0.779113705,6.24780964 L1.06478873,4.39868212 L0.129852284,4.39868212 Z M0.49343868,2.74567419 C0.389556852,2.57757169 0.259704568,2.35343502 0.155822741,2.12929835 C0.805084162,1.51292251 1.3244933,0.840512508 1.66210924,0.112068334 L2.38928203,0.196119585 C2.36331157,0.252153752 2.31137066,0.336205003 2.25942974,0.448273337 C2.20748883,0.560341672 2.15554792,0.672410006 2.12957746,0.728444173 L6.75231877,0.728444173 L6.75231877,1.28878585 L1.76599106,1.28878585 C1.35046375,1.8771446 0.934936446,2.35343502 0.49343868,2.74567419 Z M5.24603228,5.65945088 L5.29797319,4.39868212 L1.68807969,4.39868212 L1.48031604,5.65945088 L3.68780487,5.65945088 C3.53198213,5.49134838 3.2463071,5.26721171 2.90869116,4.95902379 C2.85675025,4.93100671 2.80480934,4.87497254 2.77883888,4.87497254 L3.16839573,4.42669921 C3.50601167,4.67885296 3.81765715,4.93100671 4.12930264,5.18316046 L3.73974578,5.65945088 L5.24603228,5.65945088 L5.24603228,5.65945088 Z M1.94778426,2.54955461 L1.74002061,3.81032337 L5.29797319,3.81032337 C5.32394365,3.39006711 5.34991411,2.96981086 5.34991411,2.54955461 L1.94778426,2.54955461 Z M3.84362761,3.78230628 C3.55795259,3.53015253 3.22033665,3.27799878 2.88272071,3.02584503 L3.2463071,2.57757169 C3.35018893,2.66162294 3.53198213,2.77369128 3.73974578,2.94179378 C3.94750944,3.10989628 4.10333218,3.22196461 4.20721401,3.30601586 L3.84362761,3.78230628 Z" id="XMLID_12937_"></path>
                        <path d="M19.7894881,3.89437462 C18.4909653,3.10989628 17.5040879,2.2133496 16.8807969,1.17671751 C16.1795946,2.26938377 15.1927172,3.22196461 13.8682239,4.00644295 C13.7124012,3.69825503 13.5565785,3.47411836 13.4526966,3.33403295 C15.010924,2.43748627 16.0757128,1.3728371 16.6730333,0.168102502 L17.452147,0.224136669 C17.4002061,0.336205003 17.3222947,0.448273337 17.2443833,0.560341672 C17.9196152,1.59697376 18.9064926,2.49352044 20.2309859,3.19394753 C20.127104,3.36205003 19.9712813,3.5861867 19.7894881,3.89437462 Z M16.4652696,7.39651007 L16.4652696,2.91377669 L17.2184129,2.91377669 L17.2184129,7.39651007 L16.4652696,7.39651007 Z" id="XMLID_12933_"></path>
                        <path d="M33.0344211,7.22840757 C31.3982823,6.30384381 30.4373754,4.93100671 30.1776708,3.08187919 C29.9179663,4.87497254 28.9570594,6.27582672 27.2689797,7.31245882 C27.2430092,7.25642465 27.1650978,7.1723734 27.061216,7.03228798 C26.9313637,6.86418548 26.8534524,6.72410006 26.8015114,6.64004881 C28.593473,5.60341672 29.5543799,4.0904942 29.7102026,2.0452471 C29.7361731,1.56895668 29.7621435,0.980597926 29.7621435,0.224136669 L30.4893163,0.224136669 L30.4633459,1.28878585 C30.6451391,3.95040879 31.6579869,5.68746797 33.5018893,6.49996339 C33.4759188,6.52798048 33.4759188,6.52798048 33.4499484,6.55599756 C33.2681552,6.89220256 33.1123325,7.11633923 33.0344211,7.22840757 Z" id="XMLID_12931_"></path>
                        <path d="M40.3840604,7.28444173 L40.3840604,1.3728371 L41.1372036,1.3728371 C41.1631741,1.28878585 41.1891445,1.17671751 41.215115,1.03663209 C41.2930264,0.812495424 41.3449673,0.532324588 41.4228786,0.168102502 L42.124081,0.280170836 C42.0201991,0.644392923 41.9163173,1.00861501 41.8124355,1.3728371 L43.0849879,1.3728371 L43.0849879,7.22840757 L42.4616969,7.22840757 L42.4616969,6.66806589 L41.0333218,6.66806589 L41.0333218,7.31245882 L40.3840604,7.31245882 L40.3840604,7.28444173 Z M41.0333218,2.0452471 L41.0333218,3.69825503 L42.4616969,3.69825503 L42.4616969,2.0452471 L41.0333218,2.0452471 Z M41.0333218,4.37066504 L41.0333218,6.07970714 L42.4616969,6.07970714 L42.4616969,4.37066504 L41.0333218,4.37066504 Z M44.1497766,7.22840757 C44.1238061,7.0042709 44.0718652,6.75211714 44.0199243,6.49996339 C44.2536584,6.52798048 44.6172448,6.52798048 45.1106835,6.52798048 C45.6300926,6.55599756 45.8897972,6.30384381 45.8897972,5.77151922 C45.9157677,5.32324588 45.9677086,4.37066504 45.9677086,2.94179378 C45.993679,2.52153752 45.993679,2.2133496 45.993679,2.0452471 L44.3055993,2.0452471 C44.227688,2.2133496 44.0978357,2.49352044 43.942013,2.82972544 C43.8641016,2.99782794 43.8121607,3.10989628 43.7861902,3.19394753 C43.6303675,3.08187919 43.4226038,2.94179378 43.2148402,2.82972544 C43.6563379,1.96119585 44.0199243,1.06464918 44.2536584,0.168102502 L44.9029199,0.308187919 C44.8769494,0.420256254 44.799038,0.588358755 44.7470971,0.812495424 C44.6691857,1.06464918 44.6172448,1.23275168 44.5912744,1.34482001 L46.6689109,1.34482001 C46.6689109,2.63360586 46.6429405,4.14652837 46.5650291,5.88358755 C46.5650291,6.75211714 46.1754722,7.20039048 45.3703881,7.20039048 C44.9548608,7.22840757 44.5653039,7.22840757 44.1497766,7.22840757 Z M44.799038,5.15514338 C44.6951562,5.01505796 44.5653039,4.79092129 44.3835107,4.51075046 C44.1238061,4.0904942 43.9160425,3.7542892 43.7602198,3.55816962 L44.2536584,3.19394753 C44.3835107,3.39006711 44.5912744,3.67023795 44.8509789,4.03446004 C45.0847131,4.34264796 45.2405358,4.56678462 45.3444176,4.76290421 L44.799038,5.15514338 Z" id="XMLID_12923_"></path>
                        <path d="M56.0182754,6.69608298 C55.7585708,6.49996339 55.4728958,6.21979256 55.1612503,5.88358755 C54.9275162,6.27582672 54.4860184,6.75211714 53.836757,7.31245882 C53.6809343,7.14435631 53.5251115,6.94823673 53.4212297,6.78013423 C53.9666093,6.38789506 54.3821366,5.9676388 54.6937821,5.4633313 C54.460048,5.21117755 54.122432,4.90298963 53.6809343,4.53876754 C53.836757,3.86635754 53.9925797,3.10989628 54.122432,2.32541794 L53.4991411,2.32541794 L53.4991411,1.68102502 L54.2003434,1.68102502 C54.2522843,1.40085418 54.3042252,0.952580842 54.3561661,0.364222087 C54.3821366,0.308187919 54.3821366,0.252153752 54.3821366,0.224136669 L55.0573685,0.280170836 C55.031398,0.420256254 55.0054276,0.644392923 54.9534866,0.952580842 C54.9275162,1.28878585 54.8755753,1.5409396 54.8496048,1.7090421 L56.0702163,1.7090421 L56.0702163,2.3814521 C55.9663345,3.69825503 55.7585708,4.70687004 55.4469253,5.35126297 C55.8105117,5.65945088 56.1481277,5.99565589 56.4857436,6.27582672 L56.0182754,6.69608298 Z M55.4988662,2.26938377 L54.7716934,2.26938377 C54.6418412,3.02584503 54.5119889,3.69825503 54.3561661,4.28661379 L55.0054276,4.81893838 C55.2651321,4.17454545 55.4209549,3.33403295 55.4988662,2.26938377 Z M56.3039504,4.11851129 L56.3039504,3.44610128 L58.0180006,3.44610128 L58.0180006,2.43748627 L59.1866711,1.23275168 L56.563655,1.23275168 L56.563655,0.560341672 L60.0177257,0.560341672 L60.0177257,1.28878585 L58.6932324,2.68964002 L58.6932324,3.44610128 L60.2254894,3.44610128 L60.2254894,4.11851129 L58.6932324,4.11851129 L58.6932324,6.30384381 C58.7192029,6.94823673 58.4075574,7.25642465 57.758296,7.25642465 C57.3947096,7.25642465 57.1090346,7.25642465 56.8753005,7.25642465 C56.8753005,7.22840757 56.8753005,7.20039048 56.84933,7.14435631 C56.8233595,6.89220256 56.7714186,6.66806589 56.7454482,6.52798048 C57.0311232,6.55599756 57.2908278,6.55599756 57.5505323,6.55599756 C57.8881483,6.58401464 58.043971,6.41591214 58.0180006,6.10772422 L58.0180006,4.11851129 L56.3039504,4.11851129 Z" id="XMLID_12917_"></path>
                        <path d="M67.2634832,2.01723002 L67.2634832,1.34482001 L69.8345584,1.34482001 L69.8345584,0.168102502 L70.5097903,0.168102502 L70.5097903,1.34482001 L73.0808655,1.34482001 L73.0808655,2.01723002 L70.5097903,2.01723002 L70.5097903,3.2499817 L73.4704224,3.2499817 L73.4704224,3.89437462 L70.8214358,3.89437462 C71.4966676,4.90298963 72.4056336,5.68746797 73.5483337,6.21979256 L73.1587769,6.8361684 C71.9641359,6.19177547 71.0811403,5.37928005 70.5357607,4.37066504 L70.5357607,7.42452715 L69.8605289,7.42452715 L69.8605289,4.37066504 C69.2632084,5.4633313 68.3802128,6.30384381 67.2115423,6.94823673 C67.08169,6.69608298 66.9518377,6.52798048 66.8219854,6.38789506 C67.990656,5.74350214 68.899622,4.93100671 69.5488834,3.95040879 L66.8998968,3.95040879 L66.8998968,3.30601586 L69.8864993,3.30601586 L69.8864993,2.07326419 L67.2634832,2.07326419 L67.2634832,2.01723002 Z" id="XMLID_12915_"></path>
                        <path d="M80.5603571,1.76507627 L80.5603571,1.12068334 L83.1574028,1.12068334 L83.1574028,0.168102502 L83.8326346,0.168102502 L83.8326346,1.12068334 L86.4296803,1.12068334 L86.4296803,1.76507627 L83.8326346,1.76507627 L83.8326346,3.67023795 L86.7932667,3.67023795 L86.7932667,4.31463087 L84.1183097,4.31463087 C84.819512,5.1271263 85.728478,5.77151922 86.8971485,6.21979256 C86.8711781,6.30384381 86.7932667,6.38789506 86.6893849,6.52798048 C86.6114735,6.66806589 86.5595326,6.78013423 86.4816212,6.86418548 C85.2610098,6.33186089 84.3520438,5.65945088 83.8326346,4.84695546 L83.8326346,7.42452715 L83.1574028,7.42452715 L83.1574028,4.81893838 C82.5341118,5.68746797 81.6251458,6.38789506 80.4305048,6.97625381 C80.3525934,6.80815131 80.2227411,6.61203173 80.0409479,6.41591214 C81.183648,5.88358755 82.1185845,5.21117755 82.8457573,4.37066504 L80.1967707,4.37066504 L80.1967707,3.72627212 L83.1574028,3.72627212 L83.1574028,1.82111043 L80.5603571,1.82111043 L80.5603571,1.76507627 Z M81.9367913,3.50213545 C81.806939,3.33403295 81.5991753,3.05386211 81.3135003,2.71765711 C81.183648,2.54955461 81.0797662,2.43748627 81.0278253,2.35343502 L81.521264,1.96119585 C81.7030572,2.15731544 81.9627617,2.49352044 82.3003777,2.91377669 C82.0666436,2.63360586 82.1185845,2.68964002 82.4042595,3.05386211 L81.9367913,3.50213545 Z M84.9233938,3.55816962 L84.4818961,3.10989628 C84.8454825,2.74567419 85.1830984,2.35343502 85.4687734,1.96119585 L85.9622121,2.3814521 C85.9362416,2.40946919 85.9362416,2.40946919 85.9102712,2.43748627 C85.5207143,2.88575961 85.1830984,3.27799878 84.9233938,3.55816962 Z" id="XMLID_12910_"></path>
                    </g>
                </g>
                <text id="读卷客户端" font-family="PingFangSC-Regular, PingFang SC" font-size="24" font-weight="normal" line-spacing="14">
                    <tspan x="179" y="46">读卷客户端</tspan>
                </text>
                <rect id="矩形" x="164" y="16" width="1" height="24"></rect>
            </g>
        </g>
    </g>
</svg>