<?xml version="1.0" encoding="UTF-8"?>
<svg width="31px" height="31px" viewBox="0 0 31 31" version="1.1" xmlns="http://www.w3.org/2000/svg" xmlns:xlink="http://www.w3.org/1999/xlink">
    <!-- Generator: Sketch 55.2 (78181) - https://sketchapp.com -->
    <title>icon/缩小/禁灰</title>
    <desc>Created with Sketch.</desc>
    <g id="icon/缩小/禁灰" stroke="none" stroke-width="1" fill="none" fill-rule="evenodd">
        <g>
            <rect id="矩形" fill="#000000" opacity="0.299999982" x="0" y="0" width="31" height="31" rx="4"></rect>
            <path d="M21.5363194,15.383447 C21.5363194,11.9853093 18.7815846,9.23057449 15.383447,9.23057449 C11.9853093,9.23057449 9.23057449,11.9853093 9.23057449,15.383447 C9.23057449,18.7815846 11.9853093,21.5363194 15.383447,21.5363194 C18.7815846,21.5363194 21.5363194,18.7815846 21.5363194,15.383447 L21.5363194,15.383447 Z M22.7668939,15.383447 C22.7668939,19.4612121 19.4612121,22.7668939 15.383447,22.7668939 C11.3056818,22.7668939 8,19.4612121 8,15.383447 C8,11.3056818 11.3056818,8 15.383447,8 C19.4612121,8 22.7668939,11.3056818 22.7668939,15.383447 L22.7668939,15.383447 Z M19.868891,20.7425989 C19.6276232,20.5013311 19.6276232,20.1101588 19.868891,19.868891 C20.1101588,19.6276232 20.5013311,19.6276232 20.7425989,19.868891 L23.8190351,22.9453272 C23.975108,23.1014001 24.0360614,23.3288813 23.9789347,23.5420808 C23.9218081,23.7552803 23.7552803,23.9218081 23.5420808,23.9789347 C23.3288813,24.0360614 23.1014001,23.975108 22.9453272,23.8190351 L19.868891,20.7425989 Z M12.922298,15.9987342 C12.5824842,15.9987342 12.3070107,15.7232607 12.3070107,15.383447 C12.3070107,15.0436332 12.5824842,14.7681597 12.922298,14.7681597 L17.8445959,14.7681597 C18.1844097,14.7681597 18.4598832,15.0436332 18.4598832,15.383447 C18.4598832,15.7232607 18.1844097,15.9987342 17.8445959,15.9987342 L12.922298,15.9987342 Z" id="形状" fill="#FFFFFF" fill-rule="nonzero"></path>
        </g>
    </g>
</svg>